<svg width="172" height="80" viewBox="0 0 172 80" fill="none" xmlns="http://www.w3.org/2000/svg">
<path d="M19.26 56.98C19.42 56.9933 19.58 57.0067 19.74 57.02C19.9133 57.02 20.08 57.0267 20.24 57.04C20.2533 55.52 20.2133 54.1333 20.12 52.88C20 52.88 19.9067 52.8733 19.84 52.86C19.1333 52.66 18.6467 52.3467 18.38 51.92C18.3267 51.28 18.6267 50.9867 19.28 51.04C21.7333 51.16 24.0533 51.14 26.24 50.98C26.88 50.94 27.1933 51.0667 27.18 51.36C27.1533 51.8667 26.8133 52.2067 26.16 52.38C26.08 52.4067 25.9933 52.4267 25.9 52.44C25.82 52.4533 25.74 52.4733 25.66 52.5C25.6867 53.2867 25.68 54.0467 25.64 54.78C25.6133 55.5133 25.56 56.24 25.48 56.96C25.48 56.9733 25.4733 56.9867 25.46 57C25.6467 56.9867 25.82 56.98 25.98 56.98C26.1533 56.9667 26.3267 56.9533 26.5 56.94C27.14 56.9 27.4533 57.0267 27.44 57.32C27.4267 57.8133 27.08 58.1467 26.4 58.32C24.1067 58.8 21.9267 58.9667 19.86 58.82C19.1 58.6467 18.6 58.3467 18.36 57.92C18.2933 57.2667 18.5933 56.9533 19.26 56.98ZM29.18 49.14C30.6467 49.38 31.46 50.0067 31.62 51.02C31.78 52.9267 31.7 55.3533 31.38 58.3C31.2867 59.5 30.9733 60.4133 30.44 61.04C30.1067 61.5333 29.8467 61.5467 29.66 61.08C29.8333 57.5867 29.7533 54.3733 29.42 51.44C29.3933 50.84 29.1333 50.32 28.64 49.88C28.2 49.2933 28.38 49.0467 29.18 49.14ZM23.58 52.84C23.3533 52.8667 23.1267 52.8867 22.9 52.9C22.6867 52.9 22.4667 52.9067 22.24 52.92C22.2667 54.3733 22.2067 55.76 22.06 57.08H23.66V56.96C23.6733 56.2 23.6733 55.48 23.66 54.8C23.6467 54.12 23.62 53.4667 23.58 52.84ZM63.2792 49.34C64.7459 49.6067 65.4326 50.2267 65.3392 51.2C65.3792 51.92 65.3926 52.6067 65.3792 53.26C65.3659 53.9133 65.3126 54.56 65.2192 55.2C65.6459 55.1733 65.8459 55.2933 65.8192 55.56C65.8059 56.0533 65.4926 56.38 64.8792 56.54C62.8792 56.94 60.7592 57.16 58.5192 57.2C58.3592 57.4 58.1259 57.52 57.8192 57.56C57.3126 57.64 57.0592 57.3267 57.0592 56.62C57.0992 55.0867 57.0192 53.5667 56.8192 52.06C56.7792 51.42 56.5726 50.9133 56.1992 50.54C55.7592 49.9533 55.9459 49.7067 56.7592 49.8C58.1059 50.0267 58.8392 50.64 58.9592 51.64C58.9592 51.7467 58.9592 51.8533 58.9592 51.96C58.9726 52.0667 58.9792 52.1733 58.9792 52.28C60.7126 52.2533 62.1659 52.1933 63.3392 52.1C63.3259 52.02 63.3126 51.9467 63.2992 51.88C63.2992 51.8 63.2926 51.72 63.2792 51.64C63.2259 50.9467 63.0392 50.4333 62.7192 50.1C62.2792 49.5 62.4659 49.2467 63.2792 49.34ZM55.5192 58.38C58.2126 58.38 60.4859 58.36 62.3392 58.32C64.2059 58.2667 65.6659 58.1933 66.7192 58.1C67.3726 58.06 67.6859 58.1933 67.6592 58.5C67.6459 59.0333 67.2992 59.3867 66.6192 59.56C65.5526 59.8 64.1726 59.98 62.4792 60.1C62.4926 61.4467 62.3926 62.7867 62.1792 64.12C61.9392 64.8933 61.5592 65.2867 61.0392 65.3C60.6526 65.2733 60.4592 64.8733 60.4592 64.1C60.4726 62.86 60.4326 61.56 60.3392 60.2C59.6992 60.2267 59.0259 60.2467 58.3192 60.26C57.6259 60.2733 56.8992 60.2733 56.1392 60.26C55.3659 60.0867 54.8592 59.7867 54.6192 59.36C54.5526 58.7333 54.8526 58.4067 55.5192 58.38ZM58.9592 54C58.9459 54.24 58.9326 54.4867 58.9192 54.74C58.9192 54.98 58.9059 55.2267 58.8792 55.48C59.6392 55.48 60.3992 55.4733 61.1592 55.46C61.9326 55.4333 62.6992 55.3933 63.4592 55.34C63.4726 54.7533 63.4726 54.1533 63.4592 53.54C62.8726 53.6467 62.2059 53.74 61.4592 53.82C60.7126 53.9 59.8792 53.96 58.9592 54Z" fill="#A1A1A1"/>
<path d="M12.36 15H14.56V43H12.36V15ZM13.6 17.08V15H18.92C20.68 15 22.24 15.3333 23.6 16C24.9867 16.6667 26.08 17.6133 26.88 18.84C27.68 20.0667 28.08 21.5467 28.08 23.28C28.08 24.9867 27.68 26.4667 26.88 27.72C26.08 28.9733 24.9867 29.9333 23.6 30.6C22.24 31.24 20.68 31.56 18.92 31.56H13.6V29.48H18.92C20.9733 29.48 22.64 28.9467 23.92 27.88C25.2 26.8133 25.84 25.28 25.84 23.28C25.84 21.2533 25.2 19.72 23.92 18.68C22.64 17.6133 20.9733 17.08 18.92 17.08H13.6ZM33.0194 16.28C33.0194 15.8533 33.166 15.5067 33.4594 15.24C33.7527 14.9467 34.0994 14.8 34.4994 14.8C34.926 14.8 35.2727 14.9467 35.5394 15.24C35.8327 15.5067 35.9794 15.8533 35.9794 16.28C35.9794 16.68 35.8327 17.0267 35.5394 17.32C35.2727 17.6133 34.926 17.76 34.4994 17.76C34.0994 17.76 33.7527 17.6133 33.4594 17.32C33.166 17.0267 33.0194 16.68 33.0194 16.28ZM33.4594 24.6H35.5394V43H33.4594V24.6ZM44.1963 11.8V43H42.1163V11.8H44.1963ZM59.9163 33.8C59.9163 35.7733 59.5163 37.48 58.7163 38.92C57.9429 40.36 56.8763 41.4667 55.5163 42.24C54.1829 43.0133 52.6896 43.4 51.0363 43.4C49.4896 43.4 48.1296 42.9867 46.9563 42.16C45.7829 41.3067 44.8629 40.16 44.1963 38.72C43.5563 37.2533 43.2363 35.6133 43.2363 33.8C43.2363 31.96 43.5563 30.32 44.1963 28.88C44.8629 27.44 45.7829 26.3067 46.9563 25.48C48.1296 24.6267 49.4896 24.2 51.0363 24.2C52.6896 24.2 54.1829 24.5867 55.5163 25.36C56.8763 26.1333 57.9429 27.24 58.7163 28.68C59.5163 30.0933 59.9163 31.8 59.9163 33.8ZM57.8363 33.8C57.8363 32.2 57.5163 30.8267 56.8763 29.68C56.2363 28.5333 55.3829 27.6667 54.3163 27.08C53.2496 26.4667 52.0629 26.16 50.7563 26.16C49.6363 26.16 48.5696 26.4933 47.5563 27.16C46.5429 27.8267 45.7296 28.7333 45.1163 29.88C44.5029 31.0267 44.1963 32.3333 44.1963 33.8C44.1963 35.2667 44.5029 36.5733 45.1163 37.72C45.7296 38.8667 46.5429 39.7733 47.5563 40.44C48.5696 41.1067 49.6363 41.44 50.7563 41.44C52.0629 41.44 53.2496 41.1467 54.3163 40.56C55.3829 39.9467 56.2363 39.0667 56.8763 37.92C57.5163 36.7733 57.8363 35.4 57.8363 33.8ZM66.7009 36.28C66.7009 37.88 67.0476 39.1467 67.7409 40.08C68.4343 40.9867 69.5276 41.44 71.0209 41.44C72.0609 41.44 72.9809 41.1867 73.7809 40.68C74.6076 40.1733 75.2476 39.4933 75.7009 38.64C76.1809 37.7867 76.4209 36.84 76.4209 35.8V24.6H78.5009V43H76.4209V39.16C75.9143 40.4933 75.1543 41.5333 74.1409 42.28C73.1276 43.0267 71.9276 43.4 70.5409 43.4C68.6209 43.4 67.1543 42.7867 66.1409 41.56C65.1276 40.3067 64.6209 38.6267 64.6209 36.52V24.6H66.7009V36.28Z" fill="#74B9F8"/>
<path d="M89.2647 56C89.878 57.0667 90.5314 58.0133 91.2247 58.84C91.9447 59.64 92.7314 60.2667 93.5847 60.72C94.438 61.1467 95.398 61.36 96.4647 61.36C97.7447 61.36 98.7847 61.0133 99.5847 60.32C100.385 59.6267 100.785 58.7333 100.785 57.64C100.785 56.6 100.531 55.7733 100.025 55.16C99.518 54.52 98.8114 53.9867 97.9047 53.56C97.0247 53.1067 95.998 52.6667 94.8247 52.24C94.1314 52 93.358 51.68 92.5047 51.28C91.6514 50.8533 90.838 50.3333 90.0647 49.72C89.2914 49.08 88.6514 48.3067 88.1447 47.4C87.638 46.4667 87.3847 45.3467 87.3847 44.04C87.3847 42.5467 87.7714 41.24 88.5447 40.12C89.318 38.9733 90.358 38.0933 91.6647 37.48C92.998 36.84 94.5047 36.52 96.1847 36.52C97.838 36.52 99.278 36.8133 100.505 37.4C101.731 37.9867 102.758 38.7333 103.585 39.64C104.438 40.5467 105.105 41.4933 105.585 42.48L101.745 44.64C101.398 43.9467 100.958 43.3067 100.425 42.72C99.8914 42.1067 99.2647 41.6267 98.5447 41.28C97.8514 40.9067 97.038 40.72 96.1047 40.72C94.798 40.72 93.838 41.0267 93.2247 41.64C92.6114 42.2267 92.3047 42.92 92.3047 43.72C92.3047 44.44 92.518 45.0933 92.9447 45.68C93.398 46.24 94.0914 46.7733 95.0247 47.28C95.958 47.7867 97.1714 48.3067 98.6647 48.84C99.4914 49.1333 100.318 49.5067 101.145 49.96C101.998 50.4133 102.771 50.9867 103.465 51.68C104.158 52.3467 104.705 53.1333 105.105 54.04C105.531 54.9467 105.745 56.0133 105.745 57.24C105.745 58.5467 105.491 59.72 104.985 60.76C104.478 61.8 103.785 62.68 102.905 63.4C102.025 64.0933 101.025 64.6267 99.9047 65C98.8114 65.4 97.6647 65.6 96.4647 65.6C94.8114 65.6 93.278 65.28 91.8647 64.64C90.478 63.9733 89.2647 63.0933 88.2247 62C87.1847 60.9067 86.358 59.72 85.7447 58.44L89.2647 56ZM110.069 33.8H114.309V65H110.069V33.8ZM121.069 46.6H126.349L118.429 54.2L127.149 65H121.909L113.109 54.2L121.069 46.6ZM129.873 39.28C129.873 38.5333 130.14 37.9067 130.673 37.4C131.233 36.8933 131.873 36.64 132.593 36.64C133.367 36.64 134.007 36.8933 134.513 37.4C135.047 37.9067 135.313 38.5333 135.313 39.28C135.313 40 135.047 40.6267 134.513 41.16C134.007 41.6667 133.367 41.92 132.593 41.92C131.873 41.92 131.233 41.6667 130.673 41.16C130.14 40.6267 129.873 40 129.873 39.28ZM130.473 46.6H134.713V65H130.473V46.6ZM152.498 53.8C152.498 52.44 152.218 51.4133 151.658 50.72C151.098 50.0267 150.232 49.68 149.058 49.68C148.258 49.68 147.552 49.8533 146.938 50.2C146.325 50.52 145.845 51 145.498 51.64C145.152 52.2533 144.978 52.9733 144.978 53.8V65H140.658V46.6H144.978V49.44C145.565 48.3467 146.312 47.5333 147.218 47C148.152 46.4667 149.258 46.2 150.538 46.2C152.618 46.2 154.205 46.84 155.298 48.12C156.392 49.3733 156.938 51.1067 156.938 53.32V65H152.498V53.8Z" fill="#A1A1A1"/>
<path d="M86 30H158" stroke="#74B9F8" stroke-width="2"/>
<path d="M86 26H158" stroke="#74B9F8" stroke-width="2"/>
</svg>
