<?xml version="1.0" standalone="no"?>
<!DOCTYPE svg PUBLIC "-//W3C//DTD SVG 20010904//EN"
 "http://www.w3.org/TR/2001/REC-SVG-20010904/DTD/svg10.dtd">
<svg version="1.0" xmlns="http://www.w3.org/2000/svg"
 width="700.000000pt" height="700.000000pt" viewBox="0 0 700.000000 700.000000"
 preserveAspectRatio="xMidYMid meet">
<metadata>
Created by potrace 1.14, written by Peter Selinger 2001-2017
</metadata>
<g transform="translate(0.000000,700.000000) scale(0.100000,-0.100000)"
fill="#000000" stroke="none">
<path d="M5028 5425 c-2 -1 -34 -5 -73 -9 -221 -21 -464 -104 -630 -217 -223
-150 -336 -318 -402 -591 -12 -54 -15 -305 -3 -372 64 -376 314 -660 750 -851
47 -20 99 -43 117 -51 17 -8 34 -14 37 -14 16 0 366 -144 447 -185 161 -80
250 -161 282 -258 26 -76 18 -209 -15 -272 -70 -133 -221 -206 -413 -199 -112
3 -156 11 -237 39 -226 79 -425 256 -578 513 -24 39 -45 72 -47 72 -3 0 -90
-62 -495 -353 -54 -39 -98 -76 -98 -82 0 -18 84 -160 145 -244 62 -86 207
-240 295 -313 77 -64 208 -147 319 -202 86 -44 262 -109 321 -119 94 -17 148
-28 170 -33 60 -13 377 -12 470 2 520 80 897 359 1033 764 42 126 50 182 51
340 1 181 -22 303 -84 436 -54 116 -111 196 -214 300 -106 106 -201 172 -370
258 -123 63 -153 75 -401 166 -77 29 -153 58 -170 65 -16 7 -59 26 -95 41
-163 70 -292 171 -331 259 -44 99 -26 216 45 286 70 71 135 96 266 105 140 10
295 -36 422 -124 63 -44 172 -155 224 -228 25 -35 47 -64 49 -64 2 0 26 12 53
28 27 15 174 96 325 181 l277 155 -27 45 c-90 156 -219 309 -351 415 -170 137
-412 249 -602 281 -19 3 -42 7 -50 10 -49 12 -401 30 -412 20z"/>
<path d="M705 5341 c-3 -2 -5 -804 -5 -1782 l0 -1777 430 0 430 0 0 619 0 619
263 1 c268 1 286 2 391 14 115 12 141 17 253 45 341 86 595 274 728 540 93
187 125 342 120 585 -3 180 -5 196 -35 317 -76 299 -251 513 -539 658 -77 39
-159 72 -226 90 -67 19 -160 41 -189 45 -17 2 -44 6 -61 9 -16 2 -59 8 -95 12
-69 8 -1458 13 -1465 5z m1429 -725 c185 -44 309 -158 345 -316 15 -63 13
-186 -3 -245 -44 -167 -166 -270 -365 -310 -61 -13 -142 -18 -300 -19 -119 -1
-224 0 -233 2 -17 4 -18 34 -18 458 l0 453 253 -3 c193 -2 268 -7 321 -20z"/>
</g>
</svg>
